<svg width="94" height="97" viewBox="0 0 94 97" fill="none" xmlns="http://www.w3.org/2000/svg">
<g filter="url(#filter0_d_1_324)">
<rect x="9" y="7.5" width="76" height="78" rx="38" fill="#016EC3"/>
<path d="M46.8003 49.4997L42.5003 63.9997H65.5003C65.6526 63.9944 65.8046 64.0191 65.9473 64.0725C66.0901 64.126 66.221 64.207 66.3324 64.311C66.4439 64.415 66.5337 64.54 66.5969 64.6788C66.66 64.8175 66.6951 64.9674 66.7003 65.1197V65.4997L64.7003 72.3997C64.6121 72.726 64.4156 73.0127 64.143 73.2126C63.8704 73.4124 63.538 73.5137 63.2003 73.4997H28.0003L33.9003 53.3997L27.3003 55.3997L28.8003 50.7997L35.4003 48.7997L43.7003 20.5997C43.7917 20.2753 43.989 19.9907 44.2608 19.7914C44.5326 19.592 44.8634 19.4894 45.2003 19.4997H54.1003C54.2526 19.4944 54.4046 19.5191 54.5474 19.5725C54.6901 19.626 54.821 19.707 54.9324 19.811C55.0439 19.915 55.1337 20.04 55.1969 20.1788C55.26 20.3175 55.2951 20.4674 55.3003 20.6197V20.9997L48.3003 44.7997L54.9003 42.7997L53.5003 47.5997L46.8003 49.4997Z" fill="#F4FFFB"/>
</g>
<defs>
<filter id="filter0_d_1_324" x="0" y="0.5" width="94" height="96" filterUnits="userSpaceOnUse" color-interpolation-filters="sRGB">
<feFlood flood-opacity="0" result="BackgroundImageFix"/>
<feColorMatrix in="SourceAlpha" type="matrix" values="0 0 0 0 0 0 0 0 0 0 0 0 0 0 0 0 0 0 127 0" result="hardAlpha"/>
<feOffset dy="2"/>
<feGaussianBlur stdDeviation="4.5"/>
<feComposite in2="hardAlpha" operator="out"/>
<feColorMatrix type="matrix" values="0 0 0 0 0.00392157 0 0 0 0 0.431373 0 0 0 0 0.764706 0 0 0 0.35 0"/>
<feBlend mode="normal" in2="BackgroundImageFix" result="effect1_dropShadow_1_324"/>
<feBlend mode="normal" in="SourceGraphic" in2="effect1_dropShadow_1_324" result="shape"/>
</filter>
</defs>
</svg>
