<svg width="95" height="97" viewBox="0 0 95 97" fill="none" xmlns="http://www.w3.org/2000/svg">
<g filter="url(#filter0_d_1_339)">
<rect x="9.61914" y="7.5" width="76" height="78" rx="38" fill="#F46602"/>
<path d="M72.6193 46.4977C72.6193 60.3033 61.4273 71.4957 47.6193 71.4957C33.8112 71.4957 22.6193 60.3033 22.6193 46.4977C22.6193 32.692 33.8115 21.4995 47.6193 21.4995C61.427 21.4995 72.6193 32.6909 72.6193 46.4977Z" fill="#F46602"/>
<path d="M47.6186 21.4995C33.8155 21.4995 22.6037 32.7079 22.6212 46.4969C22.6247 49.2556 23.0647 51.9093 23.8904 54.3916H31.3702V33.3626L47.6186 49.6091L63.8662 33.3626V54.392H71.3475C72.1745 51.9099 72.6122 49.2561 72.6171 46.4973C72.6407 32.6939 61.4231 21.5028 47.6186 21.5028V21.4995Z" fill="white"/>
<path d="M43.882 53.344L36.791 46.2534V59.486H31.3697L26.254 59.487C30.6421 66.6853 38.5723 71.5006 47.6186 71.5006C56.665 71.5006 64.5956 66.6843 68.9845 59.4859H58.4447V46.2534L51.3533 53.344L47.6178 57.0791L43.8822 53.344H43.882Z" fill="white"/>
</g>
<defs>
<filter id="filter0_d_1_339" x="0.619141" y="0.5" width="94" height="96" filterUnits="userSpaceOnUse" color-interpolation-filters="sRGB">
<feFlood flood-opacity="0" result="BackgroundImageFix"/>
<feColorMatrix in="SourceAlpha" type="matrix" values="0 0 0 0 0 0 0 0 0 0 0 0 0 0 0 0 0 0 127 0" result="hardAlpha"/>
<feOffset dy="2"/>
<feGaussianBlur stdDeviation="4.5"/>
<feComposite in2="hardAlpha" operator="out"/>
<feColorMatrix type="matrix" values="0 0 0 0 0.956863 0 0 0 0 0.4 0 0 0 0 0.00784314 0 0 0 0.35 0"/>
<feBlend mode="normal" in2="BackgroundImageFix" result="effect1_dropShadow_1_339"/>
<feBlend mode="normal" in="SourceGraphic" in2="effect1_dropShadow_1_339" result="shape"/>
</filter>
</defs>
</svg>
