<svg width="95" height="97" viewBox="0 0 95 97" fill="none" xmlns="http://www.w3.org/2000/svg">
<g filter="url(#filter0_d_1_337)">
<rect x="9.61914" y="7.5" width="76" height="78" rx="38" fill="#FF9700"/>
<path d="M66.8152 42.493C68.3326 36.7463 64.2297 33.1159 58.3724 30.3481L61.2188 22.6472L56.5346 20.9158L53.7642 28.4112C52.5343 27.9566 51.266 27.5142 50.0064 27.0788L52.7952 19.5337L48.111 17.8023L45.2637 25.4954C44.242 25.1403 43.2368 24.7914 42.2654 24.4324L42.274 24.4092L35.8141 22.0178L33.9639 27.0235C33.9639 27.0235 37.4494 28.2365 37.3664 28.2774C39.266 28.9795 39.4758 30.308 39.3031 31.3256L36.061 40.0973C36.1936 40.1463 36.3602 40.2154 36.5427 40.313L36.0487 40.1305L31.5032 52.4183C31.1998 52.9843 30.4967 53.8059 29.1694 53.3191C29.2095 53.3942 25.7648 52.0607 25.7648 52.0607L22.765 57.3122L28.8647 59.5668C29.9985 59.9859 31.1083 60.4187 32.1999 60.8297L29.3249 68.618L34.0058 70.3481L36.8534 62.6439C38.1266 63.1446 39.3661 63.614 40.5827 64.0637L37.7452 71.7303L42.4295 73.4617L45.3016 65.6911C53.3449 68.1516 59.5984 68.206 63.0162 61.0591C65.7717 55.3065 63.9544 51.6091 59.8793 48.8821C63.1108 48.509 65.712 46.701 66.8152 42.493ZM54.1045 56.7177C51.954 62.5357 42.2361 58.1939 39.0569 57.0188L42.8713 46.699C46.048 47.8807 56.3468 50.6511 54.1045 56.7177ZM57.3035 41.3549C55.3466 46.6491 47.2615 42.9561 44.6149 41.9816L48.0727 32.6265C50.7215 33.6055 59.3469 35.8365 57.3035 41.3549Z" fill="#FEFBFF"/>
</g>
<defs>
<filter id="filter0_d_1_337" x="0.619141" y="0.5" width="94" height="96" filterUnits="userSpaceOnUse" color-interpolation-filters="sRGB">
<feFlood flood-opacity="0" result="BackgroundImageFix"/>
<feColorMatrix in="SourceAlpha" type="matrix" values="0 0 0 0 0 0 0 0 0 0 0 0 0 0 0 0 0 0 127 0" result="hardAlpha"/>
<feOffset dy="2"/>
<feGaussianBlur stdDeviation="4.5"/>
<feComposite in2="hardAlpha" operator="out"/>
<feColorMatrix type="matrix" values="0 0 0 0 1 0 0 0 0 0.592157 0 0 0 0 0 0 0 0 0.35 0"/>
<feBlend mode="normal" in2="BackgroundImageFix" result="effect1_dropShadow_1_337"/>
<feBlend mode="normal" in="SourceGraphic" in2="effect1_dropShadow_1_337" result="shape"/>
</filter>
</defs>
</svg>
