<svg width="73" height="97" viewBox="0 0 73 97" fill="none" xmlns="http://www.w3.org/2000/svg">
<g filter="url(#filter0_d_1_344)">
<rect x="-12.7617" y="7.5" width="76" height="78" rx="38" fill="#FD0001"/>
<path d="M-3.64172 61.5V32.94H7.39828C10.5449 32.94 12.9983 33.7267 14.7583 35.3C16.5449 36.8733 17.4383 39.0467 17.4383 41.82C17.4383 44.7 16.5716 46.9133 14.8383 48.46C13.1316 50.0067 10.6783 50.78 7.47828 50.78H0.838281V61.5H-3.64172ZM0.838281 46.82H7.39828C9.21162 46.82 10.6249 46.4067 11.6383 45.58C12.6516 44.7267 13.1583 43.5267 13.1583 41.98C13.1583 40.4067 12.6516 39.1933 11.6383 38.34C10.6516 37.46 9.22495 37.02 7.35828 37.02H0.838281V46.82ZM24.7161 61.5V32.94H30.9961L37.4361 45.66L39.2761 49.38L40.9961 45.7L47.3961 32.94H53.5961V61.5H49.4361V44.94L49.4761 38.06L40.5561 55.86H37.8361L28.8361 38.06L28.9161 44.98V61.5H24.7161Z" fill="white"/>
</g>
<defs>
<filter id="filter0_d_1_344" x="-21.7617" y="0.5" width="94" height="96" filterUnits="userSpaceOnUse" color-interpolation-filters="sRGB">
<feFlood flood-opacity="0" result="BackgroundImageFix"/>
<feColorMatrix in="SourceAlpha" type="matrix" values="0 0 0 0 0 0 0 0 0 0 0 0 0 0 0 0 0 0 127 0" result="hardAlpha"/>
<feOffset dy="2"/>
<feGaussianBlur stdDeviation="4.5"/>
<feComposite in2="hardAlpha" operator="out"/>
<feColorMatrix type="matrix" values="0 0 0 0 0.992157 0 0 0 0 0 0 0 0 0 0.00392157 0 0 0 0.35 0"/>
<feBlend mode="normal" in2="BackgroundImageFix" result="effect1_dropShadow_1_344"/>
<feBlend mode="normal" in="SourceGraphic" in2="effect1_dropShadow_1_344" result="shape"/>
</filter>
</defs>
</svg>
