<svg width="62" height="62" viewBox="0 0 62 62" fill="none" xmlns="http://www.w3.org/2000/svg">
<rect x="0.864746" y="0.845703" width="61.0714" height="61.0714" rx="30.5357" fill="#1E80FE" fill-opacity="0.1"/>
<path d="M26.4931 29.7456H26.504M31.4006 29.7456H31.4115M36.3081 29.7456H36.319M25.9478 37.9248V40.4718C25.9478 41.053 25.9478 41.3435 26.0669 41.4927C26.1705 41.6225 26.3276 41.698 26.4937 41.6978C26.6846 41.6976 26.9115 41.5161 27.3653 41.1531L29.9667 39.0719C30.4982 38.6468 30.7639 38.4342 31.0598 38.2831C31.3223 38.1489 31.6017 38.0509 31.8905 37.9917C32.216 37.9248 32.5563 37.9248 33.2368 37.9248H35.981C37.8133 37.9248 38.7294 37.9248 39.4293 37.5682C40.0449 37.2546 40.5454 36.7541 40.8591 36.1385C41.2157 35.4386 41.2157 34.5225 41.2157 32.6901V26.8011C41.2157 24.9688 41.2157 24.0526 40.8591 23.3528C40.5454 22.7372 40.0449 22.2367 39.4293 21.923C38.7294 21.5664 37.8133 21.5664 35.981 21.5664H26.8203C24.9879 21.5664 24.0718 21.5664 23.3719 21.923C22.7563 22.2367 22.2558 22.7372 21.9422 23.3528C21.5856 24.0526 21.5856 24.9688 21.5856 26.8011V33.5626C21.5856 34.5768 21.5856 35.0839 21.697 35.5C21.9996 36.6289 22.8815 37.5108 24.0105 37.8134C24.4265 37.9248 24.9336 37.9248 25.9478 37.9248ZM27.0384 29.7456C27.0384 30.0467 26.7942 30.2909 26.4931 30.2909C26.1919 30.2909 25.9478 30.0467 25.9478 29.7456C25.9478 29.4445 26.1919 29.2003 26.4931 29.2003C26.7942 29.2003 27.0384 29.4445 27.0384 29.7456ZM31.9459 29.7456C31.9459 30.0467 31.7017 30.2909 31.4006 30.2909C31.0995 30.2909 30.8553 30.0467 30.8553 29.7456C30.8553 29.4445 31.0995 29.2003 31.4006 29.2003C31.7017 29.2003 31.9459 29.4445 31.9459 29.7456ZM36.8534 29.7456C36.8534 30.0467 36.6092 30.2909 36.3081 30.2909C36.007 30.2909 35.7629 30.0467 35.7629 29.7456C35.7629 29.4445 36.007 29.2003 36.3081 29.2003C36.6092 29.2003 36.8534 29.4445 36.8534 29.7456Z" stroke="#1E80FE" stroke-width="2.18112" stroke-linecap="round" stroke-linejoin="round"/>
</svg>
