<svg width="62" height="62" viewBox="0 0 62 62" fill="none" xmlns="http://www.w3.org/2000/svg">
<rect x="0.334229" y="0.845703" width="61.0714" height="61.0714" rx="30.5357" fill="#1E80FE" fill-opacity="0.1"/>
<g clip-path="url(#clip0_1_466)">
<path fill-rule="evenodd" clip-rule="evenodd" d="M19.1904 25.5161V22.5962C19.1904 21.0001 20.4889 19.7017 22.085 19.7017H25.0049C25.3695 19.7017 25.665 19.4061 25.665 19.0415C25.665 18.6769 25.3695 18.3813 25.0049 18.3813H22.085C19.7609 18.3813 17.8701 20.2721 17.8701 22.5962V25.5161C17.8701 25.8807 18.1657 26.1763 18.5303 26.1763C18.8949 26.1763 19.1904 25.8807 19.1904 25.5161ZM25.0049 43.061C25.3695 43.061 25.665 43.3566 25.665 43.7212C25.665 44.0858 25.3695 44.3813 25.0049 44.3813H22.085C19.7609 44.3813 17.8701 42.4906 17.8701 40.1665V37.2466C17.8701 36.882 18.1657 36.5864 18.5303 36.5864C18.8949 36.5864 19.1904 36.882 19.1904 37.2466V40.1665C19.1904 41.7625 20.4889 43.061 22.085 43.061H25.0049ZM43.8701 37.2466V40.1665C43.8701 42.4906 41.9793 44.3813 39.6553 44.3813H36.7354C36.3708 44.3813 36.0752 44.0858 36.0752 43.7212C36.0752 43.3566 36.3708 43.061 36.7354 43.061H39.6553C41.2513 43.061 42.5498 41.7625 42.5498 40.1665V37.2466C42.5498 36.882 42.8454 36.5864 43.21 36.5864C43.5745 36.5864 43.8701 36.882 43.8701 37.2466ZM43.8701 22.5962V25.5161C43.8701 25.8807 43.5745 26.1763 43.21 26.1763C42.8454 26.1763 42.5498 25.8807 42.5498 25.5161V22.5962C42.5498 21.0001 41.2513 19.7017 39.6553 19.7017H36.7354C36.3708 19.7017 36.0752 19.4061 36.0752 19.0415C36.0752 18.6769 36.3708 18.3813 36.7354 18.3813H39.6553C41.9793 18.3813 43.8701 20.2721 43.8701 22.5962ZM35.4259 37.5979C35.7041 37.341 35.7213 36.9073 35.4643 36.6291C35.2074 36.351 34.7737 36.3338 34.4956 36.5907C33.5059 37.5049 32.2184 38.0083 30.8701 38.0083C29.5218 38.0083 28.2343 37.5049 27.2446 36.5907C26.9665 36.3338 26.5328 36.351 26.2759 36.6291C26.019 36.9073 26.0362 37.341 26.3143 37.5979C27.5581 38.7467 29.176 39.3794 30.8701 39.3794C32.5643 39.3794 34.1822 38.7467 35.4259 37.5979ZM32.2412 28.1821V33.0571C32.2412 34.0232 31.4553 34.8091 30.4893 34.8091H29.9307C29.552 34.8091 29.2451 34.5022 29.2451 34.1235C29.2451 33.7449 29.552 33.438 29.9307 33.438H30.4893C30.6993 33.438 30.8701 33.2671 30.8701 33.0571V28.1821C30.8701 27.8035 31.177 27.4966 31.5557 27.4966C31.9343 27.4966 32.2412 27.8035 32.2412 28.1821ZM36.9639 30.0991V28.144C36.9639 27.7865 36.674 27.4966 36.3164 27.4966C35.9588 27.4966 35.6689 27.7865 35.6689 28.144V30.0991C35.6689 30.4567 35.9588 30.7466 36.3164 30.7466C36.674 30.7466 36.9639 30.4567 36.9639 30.0991ZM24.9287 30.0991C24.9287 30.4567 25.2186 30.7466 25.5762 30.7466C25.9337 30.7466 26.2236 30.4567 26.2236 30.0991V28.144C26.2236 27.7865 25.9337 27.4966 25.5762 27.4966C25.2186 27.4966 24.9287 27.7865 24.9287 28.144V30.0991Z" fill="#1E80FE"/>
</g>
<defs>
<clipPath id="clip0_1_466">
<rect width="26.1735" height="26.1735" fill="white" transform="translate(17.7832 18.2947)"/>
</clipPath>
</defs>
</svg>
