<svg width="62" height="62" viewBox="0 0 62 62" fill="none" xmlns="http://www.w3.org/2000/svg">
<rect x="0.803528" y="0.845703" width="61.0714" height="61.0714" rx="30.5357" fill="#1E80FE" fill-opacity="0.1"/>
<path d="M31.3391 35.1984H26.4316C24.9096 35.1984 24.1486 35.1984 23.5294 35.3862C22.1352 35.8091 21.0442 36.9002 20.6213 38.2944C20.4335 38.9136 20.4335 39.6745 20.4335 41.1965M38.973 41.1965V34.6531M35.7013 37.9248H42.2447M34.0655 26.4739C34.0655 29.1843 31.8683 31.3815 29.158 31.3815C26.4476 31.3815 24.2504 29.1843 24.2504 26.4739C24.2504 23.7636 26.4476 21.5664 29.158 21.5664C31.8683 21.5664 34.0655 23.7636 34.0655 26.4739Z" stroke="#1E80FE" stroke-width="2.18112" stroke-linecap="round" stroke-linejoin="round"/>
</svg>
