<svg width="204" height="36" viewBox="0 0 204 36" fill="none" xmlns="http://www.w3.org/2000/svg">
<g clip-path="url(#clip0_1_516)">
<path d="M33.2108 36.3995V31.0319L28.5217 30.9886L23.7505 25.4711L36 25.6256V20.1428H23.7505L32.5852 9.77589L28.6108 6.3043L20.6381 15.4502V-0.423431H15.3229V15.4502L7.46993 6.3043L3.35189 9.75195L12.0668 20.1428H0V25.6256H12.0668L7.54176 30.9886H3.66314V36.4234H10.0078L18.0523 26.9903L25.9772 36.3995H33.2108Z" fill="url(#paint0_linear_1_516)"/>
<path d="M58.416 14V16.912H54.944V23.632C54.944 24.2107 55.0746 24.6307 55.336 24.892C55.5973 25.1347 55.98 25.2747 56.484 25.312C57.0066 25.3307 57.6506 25.3213 58.416 25.284V28C56.1013 28.28 54.44 28.084 53.432 27.412C52.424 26.7213 51.92 25.4613 51.92 23.632V16.912H49.344V14H51.92V10.976L54.944 10.08V14H58.416ZM64.3194 14V16.352C65.0847 14.616 66.522 13.748 68.6314 13.748V17.024C67.4927 16.9493 66.4847 17.2293 65.6074 17.864C64.7487 18.48 64.3194 19.5067 64.3194 20.944V28H61.2954V14H64.3194ZM80.3017 21.504V14H83.3257V28H80.3017V26.208C79.3684 27.6453 77.9217 28.364 75.9617 28.364C74.3377 28.364 73.031 27.8507 72.0417 26.824C71.071 25.7787 70.5857 24.3693 70.5857 22.596V14H73.6097V22.288C73.6097 23.3333 73.8897 24.136 74.4497 24.696C75.0097 25.256 75.775 25.536 76.7457 25.536C77.847 25.536 78.715 25.2 79.3497 24.528C79.9844 23.8373 80.3017 22.8293 80.3017 21.504ZM100.386 22.288H89.2418C89.4658 23.3333 89.9698 24.1453 90.7538 24.724C91.5564 25.3027 92.5458 25.592 93.7218 25.592C95.3084 25.592 96.5124 25.0133 97.3338 23.856L99.8258 25.312C98.4631 27.3467 96.4191 28.364 93.6938 28.364C91.4351 28.364 89.5964 27.6733 88.1778 26.292C86.7778 24.892 86.0778 23.128 86.0778 21C86.0778 18.928 86.7684 17.1827 88.1498 15.764C89.5124 14.3453 91.2858 13.636 93.4698 13.636C95.5044 13.636 97.1844 14.3547 98.5098 15.792C99.8351 17.2293 100.498 18.9747 100.498 21.028C100.498 21.4013 100.46 21.8213 100.386 22.288ZM89.2138 19.824H97.4458C97.2404 18.7227 96.7738 17.8733 96.0458 17.276C95.3364 16.6787 94.4684 16.38 93.4418 16.38C92.3218 16.38 91.3884 16.688 90.6418 17.304C89.8951 17.92 89.4191 18.76 89.2138 19.824ZM115.787 25.592C114.461 27.44 112.604 28.364 110.215 28.364C107.825 28.364 105.968 27.44 104.643 25.592C103.317 23.744 102.655 21.28 102.655 18.2C102.655 15.12 103.317 12.656 104.643 10.808C105.968 8.96 107.825 8.036 110.215 8.036C112.604 8.036 114.461 8.96 115.787 10.808C117.112 12.656 117.775 15.12 117.775 18.2C117.775 21.28 117.112 23.744 115.787 25.592ZM106.547 23.828C107.405 25.1533 108.628 25.816 110.215 25.816C111.801 25.816 113.024 25.1533 113.883 23.828C114.76 22.5027 115.199 20.6267 115.199 18.2C115.199 15.7733 114.76 13.8973 113.883 12.572C113.024 11.228 111.801 10.556 110.215 10.556C108.628 10.556 107.405 11.2187 106.547 12.544C105.688 13.8693 105.259 15.7547 105.259 18.2C105.259 20.6267 105.688 22.5027 106.547 23.828ZM133.031 28H130.175L126.255 22.708L122.307 28H119.451L124.827 20.804L119.759 14H122.643L126.255 18.872L129.867 14H132.723L127.683 20.776L133.031 28ZM142.906 16.352H139.182V23.94C139.182 24.6307 139.312 25.1253 139.574 25.424C139.854 25.704 140.274 25.8533 140.834 25.872C141.394 25.872 142.084 25.8533 142.906 25.816V28C140.778 28.28 139.219 28.112 138.23 27.496C137.24 26.8613 136.746 25.676 136.746 23.94V16.352H133.974V14H136.746V10.808L139.182 10.08V14H142.906V16.352ZM148.308 16.352C149.11 14.616 150.566 13.748 152.676 13.748V16.296C151.481 16.24 150.454 16.5573 149.596 17.248C148.737 17.9387 148.308 19.0493 148.308 20.58V28H145.872V14H148.308V16.352ZM165.885 14H168.321V28H165.885V25.592C164.672 27.44 162.908 28.364 160.593 28.364C158.633 28.364 156.963 27.6547 155.581 26.236C154.2 24.7987 153.509 23.0533 153.509 21C153.509 18.9467 154.2 17.2107 155.581 15.792C156.963 14.3547 158.633 13.636 160.593 13.636C162.908 13.636 164.672 14.56 165.885 16.408V14ZM160.901 26.012C162.32 26.012 163.505 25.536 164.457 24.584C165.409 23.6133 165.885 22.4187 165.885 21C165.885 19.5813 165.409 18.396 164.457 17.444C163.505 16.4733 162.32 15.988 160.901 15.988C159.501 15.988 158.325 16.4733 157.373 17.444C156.421 18.396 155.945 19.5813 155.945 21C155.945 22.4187 156.421 23.6133 157.373 24.584C158.325 25.536 159.501 26.012 160.901 26.012ZM183.604 8.4H186.04V28H183.604V25.592C182.391 27.44 180.627 28.364 178.312 28.364C176.352 28.364 174.682 27.6547 173.3 26.236C171.919 24.7987 171.228 23.0533 171.228 21C171.228 18.9467 171.919 17.2107 173.3 15.792C174.682 14.3547 176.352 13.636 178.312 13.636C180.627 13.636 182.391 14.56 183.604 16.408V8.4ZM178.62 26.012C180.039 26.012 181.224 25.536 182.176 24.584C183.128 23.6133 183.604 22.4187 183.604 21C183.604 19.5813 183.128 18.396 182.176 17.444C181.224 16.4733 180.039 15.988 178.62 15.988C177.22 15.988 176.044 16.4733 175.092 17.444C174.14 18.396 173.664 19.5813 173.664 21C173.664 22.4187 174.14 23.6133 175.092 24.584C176.044 25.536 177.22 26.012 178.62 26.012ZM191.439 22.12C191.682 23.3707 192.251 24.3413 193.147 25.032C194.062 25.7227 195.182 26.068 196.507 26.068C198.355 26.068 199.699 25.3867 200.539 24.024L202.611 25.2C201.248 27.3093 199.195 28.364 196.451 28.364C194.23 28.364 192.419 27.6733 191.019 26.292C189.638 24.892 188.947 23.128 188.947 21C188.947 18.8907 189.628 17.136 190.991 15.736C192.354 14.336 194.118 13.636 196.283 13.636C198.336 13.636 200.007 14.364 201.295 15.82C202.602 17.2573 203.255 18.9933 203.255 21.028C203.255 21.3827 203.227 21.7467 203.171 22.12H191.439ZM196.283 15.932C194.976 15.932 193.894 16.3053 193.035 17.052C192.176 17.78 191.644 18.76 191.439 19.992H200.791C200.586 18.6667 200.063 17.6587 199.223 16.968C198.383 16.2773 197.403 15.932 196.283 15.932Z" fill="white"/>
</g>
<defs>
<linearGradient id="paint0_linear_1_516" x1="9.97409" y1="35.0445" x2="36.7144" y2="22.2608" gradientUnits="userSpaceOnUse">
<stop stop-color="#FD3865"/>
<stop offset="0.348958" stop-color="#CF2C3D"/>
<stop offset="0.640625" stop-color="#691D1D"/>
<stop offset="0.74173" stop-color="#30130B"/>
<stop offset="0.861537" stop-color="#30130B"/>
<stop offset="1" stop-color="#D32349"/>
</linearGradient>
<clipPath id="clip0_1_516">
<rect width="204" height="36" fill="white"/>
</clipPath>
</defs>
</svg>
